<svg width="126" height="126" viewBox="0 0 126 126" fill="none" xmlns="http://www.w3.org/2000/svg">
<path d="M3.35938 79.4219C3.25521 79.1615 3.20312 78.224 3.20312 76.6094C3.20312 74.9948 3.20312 72.9635 3.20312 70.5156C3.25521 68.0677 3.30729 65.3333 3.35938 62.3125C3.46354 59.2396 3.54167 56.1406 3.59375 53.0156C3.69792 49.8385 3.80208 46.7656 3.90625 43.7969C4.01042 40.776 4.08854 38.0938 4.14062 35.75C4.24479 33.4062 4.32292 31.5052 4.375 30.0469C4.42708 28.5365 4.47917 27.7292 4.53125 27.625C4.58333 27.4167 4.81771 26.8958 5.23438 26.0625C5.65104 25.2292 6.11979 24.3698 6.64062 23.4844C7.21354 22.5469 7.78646 21.7396 8.35938 21.0625C8.93229 20.3333 9.42708 19.9948 9.84375 20.0469C10 20.099 10.1302 21.1406 10.2344 23.1719C10.3906 25.151 10.5208 27.7031 10.625 30.8281C10.7812 33.9531 10.8854 37.4167 10.9375 41.2188C11.0417 44.9688 11.1198 48.6406 11.1719 52.2344C11.276 55.776 11.3542 59.0052 11.4062 61.9219C11.4583 64.7865 11.5104 66.8958 11.5625 68.25C13.2292 68.4062 14.8958 68.5365 16.5625 68.6406C18.2812 68.7448 19.8177 68.875 21.1719 69.0312C22.526 69.1354 23.6198 69.2396 24.4531 69.3438C25.3385 69.4479 25.8073 69.526 25.8594 69.5781C26.0156 69.7865 26.224 70.2812 26.4844 71.0625C26.7969 71.7917 27.0833 72.599 27.3438 73.4844C27.6042 74.3177 27.7865 75.099 27.8906 75.8281C28.0469 76.5573 28.0208 77 27.8125 77.1562C21.8229 78.25 17.1875 78.9792 13.9062 79.3438C10.625 79.7083 8.20312 79.8906 6.64062 79.8906C4.81771 79.8906 3.72396 79.7344 3.35938 79.4219ZM60.3906 56.1406C60.4948 56.2969 60.4688 56.8177 60.3125 57.7031C60.2083 58.5885 60.026 59.5521 59.7656 60.5938C59.5573 61.6354 59.3229 62.625 59.0625 63.5625C58.8542 64.4479 58.6719 64.9688 58.5156 65.125H57.7344C57.5781 65.125 57.4219 65.099 57.2656 65.0469C57.526 67.5469 57.7344 69.5521 57.8906 71.0625C58.0469 72.5729 58.125 73.4062 58.125 73.5625C58.125 73.9271 57.9427 74.4479 57.5781 75.125C57.2656 75.8021 56.901 76.4271 56.4844 77C56.0677 77.5729 55.625 78.0156 55.1562 78.3281C54.7396 78.6927 54.4531 78.7188 54.2969 78.4062C54.0365 77.9375 53.4896 76.5312 52.6562 74.1875C51.8229 71.8438 50.8854 68.6406 49.8438 64.5781C48.8021 64.474 47.7083 64.3698 46.5625 64.2656C45.4688 64.1615 44.349 64.0573 43.2031 63.9531C42.0573 63.849 40.9115 63.7188 39.7656 63.5625C38.6719 63.3542 37.6042 63.1719 36.5625 63.0156C36.0417 65.3073 35.5208 67.4688 35 69.5C34.5312 71.5312 34.0625 73.3021 33.5938 74.8125C33.1771 76.3229 32.8125 77.5208 32.5 78.4062C32.1875 79.2917 31.9531 79.7344 31.7969 79.7344C31.3802 79.7344 30.9635 79.474 30.5469 78.9531C30.1302 78.4323 29.7396 77.8073 29.375 77.0781C29.0625 76.349 28.8021 75.5938 28.5938 74.8125C28.3854 74.0312 28.2812 73.3802 28.2812 72.8594C28.3854 71.6615 28.5156 70.4115 28.6719 69.1094C28.8802 67.8073 29.0365 66.6094 29.1406 65.5156C29.2969 64.2135 29.4531 62.9375 29.6094 61.6875H29.2969C29.0885 61.5833 28.8021 61.349 28.4375 60.9844C28.0729 60.6198 27.7083 60.2552 27.3438 59.8906C26.9792 59.474 26.6667 59.0833 26.4062 58.7188C26.1458 58.3021 26.0156 57.9896 26.0156 57.7812C26.0156 57.6771 26.3802 57.5729 27.1094 57.4688C27.8906 57.3646 28.9062 57.2604 30.1562 57.1562C30.5729 54.0312 31.0156 50.776 31.4844 47.3906C31.9531 44.0052 32.4219 40.8281 32.8906 37.8594C33.3594 34.8906 33.8021 32.3125 34.2188 30.125C34.6875 27.8854 35.0781 26.349 35.3906 25.5156C35.9115 24.1094 36.8229 22.8594 38.125 21.7656C39.4271 20.6198 40.7812 19.6823 42.1875 18.9531C43.6458 18.1719 45.026 17.5729 46.3281 17.1562C47.6302 16.7396 48.5938 16.5312 49.2188 16.5312C49.4792 16.5312 49.7656 17.1302 50.0781 18.3281C50.4427 19.474 50.8073 21.0365 51.1719 23.0156C51.5885 24.9948 52.0052 27.3125 52.4219 29.9688C52.8906 32.5729 53.3333 35.3333 53.75 38.25C54.1667 41.1667 54.5573 44.1615 54.9219 47.2344C55.3385 50.2552 55.7292 53.1458 56.0938 55.9062C58.6979 55.9062 60.1302 55.9844 60.3906 56.1406ZM38.0469 56.6094C39.7135 56.5052 41.3802 56.4271 43.0469 56.375C44.7135 56.3229 46.3542 56.2448 47.9688 56.1406C47.5521 54.1094 47.0833 51.8438 46.5625 49.3438C46.1458 47.2083 45.651 44.7083 45.0781 41.8438C44.5052 38.9792 43.9323 35.8281 43.3594 32.3906C42.7344 35.4635 42.1094 38.4583 41.4844 41.375C40.8594 44.2396 40.2865 46.8177 39.7656 49.1094C39.1927 51.7656 38.6198 54.2656 38.0469 56.6094ZM83.0469 28.4062C82.1615 28.4583 81.276 28.4844 80.3906 28.4844C79.5573 28.4323 78.776 28.4062 78.0469 28.4062C77.2135 28.4062 76.4323 28.3802 75.7031 28.3281C75.8073 31.0885 75.8333 34.3177 75.7812 38.0156C75.7812 41.6615 75.7292 45.4115 75.625 49.2656C75.5729 53.1198 75.4688 56.8958 75.3125 60.5938C75.2083 64.2396 75.0781 67.4688 74.9219 70.2812C76.901 70.2292 78.6458 70.2292 80.1562 70.2812C81.6667 70.3333 82.474 70.4115 82.5781 70.5156C82.6823 70.6719 82.6823 71.1927 82.5781 72.0781C82.474 72.9115 82.3177 73.849 82.1094 74.8906C81.901 75.8802 81.6927 76.7917 81.4844 77.625C81.276 78.5104 81.1198 79.0573 81.0156 79.2656C79.5573 79.3177 78.2031 79.3177 76.9531 79.2656C75.7552 79.2656 74.7135 79.2135 73.8281 79.1094C72.7865 79.0573 71.849 78.9792 71.0156 78.875C70.1823 78.7188 69.2969 78.5365 68.3594 78.3281C67.5781 78.1198 66.6667 77.8594 65.625 77.5469C64.6354 77.2344 63.6198 76.8438 62.5781 76.375C62.3698 76.2708 62.1094 75.9844 61.7969 75.5156C61.5365 75.0469 61.25 74.5521 60.9375 74.0312C60.6771 73.4583 60.4688 72.9115 60.3125 72.3906C60.1042 71.8698 60 71.5052 60 71.2969C60 71.2448 60.2344 71.1927 60.7031 71.1406C61.1719 71.0365 61.8229 70.9583 62.6562 70.9062C63.4896 70.8021 64.4271 70.724 65.4688 70.6719C66.5104 70.5677 67.6302 70.4896 68.8281 70.4375C68.724 68.9271 68.5677 66.9479 68.3594 64.5C68.2031 62 68.0208 59.3177 67.8125 56.4531C67.6562 53.5365 67.474 50.5677 67.2656 47.5469C67.1094 44.474 66.9792 41.6354 66.875 39.0312C66.7708 36.375 66.7188 34.0573 66.7188 32.0781C66.7188 30.099 66.7969 28.7188 66.9531 27.9375C67.0052 27.8333 67.0312 27.7552 67.0312 27.7031C67.0312 27.599 67.0573 27.4948 67.1094 27.3906L64.9219 26.8438C64.2969 26.6875 63.6198 26.5052 62.8906 26.2969C62.1615 26.0885 61.4323 25.8542 60.7031 25.5938C60.4948 25.4896 60.2344 25.2031 59.9219 24.7344C59.5573 24.2656 59.2188 23.7448 58.9062 23.1719C58.5417 22.599 58.2552 22.0781 58.0469 21.6094C57.7865 21.0885 57.6562 20.724 57.6562 20.5156C57.6562 20.4115 58.3333 20.3073 59.6875 20.2031C60.9896 20.0469 62.6302 19.9167 64.6094 19.8125C66.5885 19.7083 68.724 19.6302 71.0156 19.5781C73.3594 19.526 75.5208 19.5 77.5 19.5C79.5312 19.5 81.224 19.526 82.5781 19.5781C83.9844 19.5781 84.7396 19.6302 84.8438 19.7344C85 19.8906 85 20.4115 84.8438 21.2969C84.7396 22.1302 84.5573 23.0677 84.2969 24.1094C84.0885 25.099 83.8542 26.0365 83.5938 26.9219C83.3854 27.7552 83.2031 28.25 83.0469 28.4062ZM86.7188 79.4219C86.6146 79.1615 86.5625 78.224 86.5625 76.6094C86.5625 74.9948 86.5625 72.9635 86.5625 70.5156C86.6146 68.0677 86.6667 65.3333 86.7188 62.3125C86.8229 59.2396 86.901 56.1406 86.9531 53.0156C87.0573 49.8385 87.1615 46.7656 87.2656 43.7969C87.3698 40.776 87.4479 38.0938 87.5 35.75C87.6042 33.4062 87.6823 31.5052 87.7344 30.0469C87.7865 28.5365 87.8385 27.7292 87.8906 27.625C87.9427 27.4167 88.1771 26.8958 88.5938 26.0625C89.0104 25.2292 89.4792 24.3698 90 23.4844C90.5729 22.5469 91.1458 21.7396 91.7188 21.0625C92.2917 20.3333 92.7865 19.9948 93.2031 20.0469C93.3594 20.099 93.4896 21.1406 93.5938 23.1719C93.75 25.151 93.8802 27.7031 93.9844 30.8281C94.1406 33.9531 94.2448 37.4167 94.2969 41.2188C94.401 44.9688 94.4792 48.6406 94.5312 52.2344C94.6354 55.776 94.7135 59.0052 94.7656 61.9219C94.8177 64.7865 94.8698 66.8958 94.9219 68.25C96.5885 68.4062 98.2552 68.5365 99.9219 68.6406C101.641 68.7448 103.177 68.875 104.531 69.0312C105.885 69.1354 106.979 69.2396 107.812 69.3438C108.698 69.4479 109.167 69.526 109.219 69.5781C109.375 69.7865 109.583 70.2812 109.844 71.0625C110.156 71.7917 110.443 72.599 110.703 73.4844C110.964 74.3177 111.146 75.099 111.25 75.8281C111.406 76.5573 111.38 77 111.172 77.1562C105.182 78.25 100.547 78.9792 97.2656 79.3438C93.9844 79.7083 91.5625 79.8906 90 79.8906C88.1771 79.8906 87.0833 79.7344 86.7188 79.4219Z" fill="#9D18E1"/>
<path d="M1.99219 90.8438C2.1224 90.6094 2.39583 90.3099 2.8125 89.9453C3.22917 89.5547 3.72396 89.1641 4.29688 88.7734C4.89583 88.3828 5.53385 88.0312 6.21094 87.7188C6.88802 87.3802 7.5651 87.1589 8.24219 87.0547C8.94531 86.9245 9.59635 86.9505 10.1953 87.1328C10.8203 87.2891 11.3542 87.6536 11.7969 88.2266C12.0312 88.513 12.2526 89.0859 12.4609 89.9453C12.6693 90.8047 12.8646 91.8464 13.0469 93.0703C13.2552 94.2682 13.4375 95.6094 13.5938 97.0938C13.75 98.5521 13.8802 100.049 13.9844 101.586C14.0885 103.096 14.1536 104.594 14.1797 106.078C14.2318 107.536 14.2318 108.891 14.1797 110.141C14.1536 111.365 14.0755 112.419 13.9453 113.305C13.8411 114.164 13.6719 114.763 13.4375 115.102C12.9688 115.779 12.2396 116.234 11.25 116.469C10.2604 116.703 9.21875 116.703 8.125 116.469C7.03125 116.26 5.98958 115.818 5 115.141C4.01042 114.464 3.28125 113.552 2.8125 112.406C2.5 111.651 2.23958 110.622 2.03125 109.32C1.84896 108.018 1.70573 106.612 1.60156 105.102C1.4974 103.565 1.43229 102.003 1.40625 100.414C1.40625 98.8255 1.41927 97.3672 1.44531 96.0391C1.4974 94.6849 1.5625 93.5391 1.64062 92.6016C1.74479 91.6641 1.86198 91.0781 1.99219 90.8438ZM9.64844 110.648C9.80469 110.492 9.90885 110.076 9.96094 109.398C10.0391 108.695 10.0781 107.875 10.0781 106.938C10.1042 105.974 10.1042 104.958 10.0781 103.891C10.0781 102.823 10.0781 101.833 10.0781 100.922C10.0781 98.6042 10 96.8073 9.84375 95.5312C9.6875 94.2552 9.50521 93.3047 9.29688 92.6797C9.0625 91.9505 8.80208 91.4948 8.51562 91.3125C8.125 91.3906 7.79948 91.5208 7.53906 91.7031C7.27865 91.8594 7.07031 92.0417 6.91406 92.25C6.73177 92.4844 6.58854 92.7318 6.48438 92.9922C6.40625 93.2266 6.3151 93.6823 6.21094 94.3594C6.13281 95.0365 6.05469 95.8438 5.97656 96.7812C5.89844 97.6927 5.82031 98.6953 5.74219 99.7891C5.6901 100.857 5.63802 101.911 5.58594 102.953C5.5599 103.995 5.53385 104.984 5.50781 105.922C5.50781 106.833 5.52083 107.589 5.54688 108.188C5.59896 109.099 5.80729 109.763 6.17188 110.18C6.5625 110.596 6.97917 110.87 7.42188 111C7.86458 111.104 8.29427 111.104 8.71094 111C9.15365 110.896 9.46615 110.779 9.64844 110.648ZM25.0781 95.9219C25.1042 96 25.1042 96.2214 25.0781 96.5859C25.0521 96.9245 25 97.3151 24.9219 97.7578C24.8698 98.1745 24.8047 98.5651 24.7266 98.9297C24.6484 99.2682 24.5833 99.4766 24.5312 99.5547C24.2708 99.5807 24.0104 99.5938 23.75 99.5938C23.4896 99.5677 23.2422 99.5547 23.0078 99.5547H22.1875C22.1615 101.273 22.1224 102.979 22.0703 104.672C22.0182 106.365 21.9531 107.888 21.875 109.242C21.7969 110.57 21.7057 111.651 21.6016 112.484C21.5234 113.318 21.4453 113.747 21.3672 113.773C21.1849 113.799 20.9766 113.721 20.7422 113.539C20.5078 113.357 20.2734 113.135 20.0391 112.875C19.8307 112.589 19.6354 112.302 19.4531 112.016C19.2969 111.703 19.2057 111.43 19.1797 111.195C19.0495 109.607 18.9323 108.096 18.8281 106.664C18.724 105.206 18.6458 103.917 18.5938 102.797C18.4896 101.495 18.4245 100.284 18.3984 99.1641C18.112 99.138 17.8255 99.099 17.5391 99.0469C17.2786 98.9948 17.0052 98.9427 16.7188 98.8906C16.4583 98.8385 16.1849 98.7865 15.8984 98.7344C15.8464 98.6823 15.7812 98.5651 15.7031 98.3828C15.625 98.1745 15.5469 97.9531 15.4688 97.7188C15.4167 97.4844 15.3646 97.263 15.3125 97.0547C15.2604 96.8203 15.2344 96.651 15.2344 96.5469C15.2344 96.4688 15.5208 96.3906 16.0938 96.3125C16.6927 96.2344 17.4219 96.1693 18.2812 96.1172C18.2292 94.737 18.1901 93.5391 18.1641 92.5234C18.1641 91.4818 18.2031 90.7786 18.2812 90.4141C18.3594 89.9193 18.5677 89.4505 18.9062 89.0078C19.2708 88.5391 19.6484 88.1354 20.0391 87.7969C20.4557 87.4583 20.8333 87.2109 21.1719 87.0547C21.5365 86.8724 21.7708 86.8203 21.875 86.8984C21.9531 86.9505 22.0182 87.224 22.0703 87.7188C22.1224 88.1875 22.1615 88.8255 22.1875 89.6328C22.2135 90.4401 22.2266 91.3906 22.2266 92.4844C22.2266 93.5521 22.2266 94.6849 22.2266 95.8828C23.0078 95.8307 23.6719 95.8177 24.2188 95.8438C24.7656 95.8438 25.0521 95.8698 25.0781 95.9219ZM30.4297 99.2031C30.4818 99.3333 30.5078 99.75 30.5078 100.453C30.5339 101.13 30.5339 101.964 30.5078 102.953C30.5078 103.917 30.4818 104.958 30.4297 106.078C30.3776 107.172 30.3125 108.214 30.2344 109.203C30.1823 110.167 30.1172 111 30.0391 111.703C29.9609 112.38 29.8828 112.784 29.8047 112.914C29.5703 113.279 29.2188 113.513 28.75 113.617C28.2812 113.695 27.9427 113.708 27.7344 113.656C27.6302 113.656 27.513 113.357 27.3828 112.758C27.2786 112.159 27.1745 111.404 27.0703 110.492C26.9661 109.581 26.875 108.591 26.7969 107.523C26.7188 106.456 26.6536 105.44 26.6016 104.477C26.5495 103.487 26.5234 102.628 26.5234 101.898C26.5234 101.169 26.5495 100.701 26.6016 100.492C26.6797 100.154 26.901 99.8542 27.2656 99.5938C27.6562 99.3333 28.0599 99.138 28.4766 99.0078C28.9193 98.8776 29.3229 98.8255 29.6875 98.8516C30.0781 98.8516 30.3255 98.9688 30.4297 99.2031ZM30.625 92.875C30.7292 93.0833 30.7682 93.3698 30.7422 93.7344C30.7422 94.099 30.7031 94.4766 30.625 94.8672C30.5469 95.2578 30.4427 95.6354 30.3125 96C30.1823 96.3646 30.0521 96.651 29.9219 96.8594C29.6615 97.224 29.2708 97.4583 28.75 97.5625C28.2552 97.6406 27.8906 97.6536 27.6562 97.6016C27.474 97.5755 27.2917 97.4583 27.1094 97.25C26.9271 97.0156 26.7708 96.7422 26.6406 96.4297C26.5104 96.0911 26.4193 95.7266 26.3672 95.3359C26.3151 94.9453 26.3281 94.5807 26.4062 94.2422C26.4844 93.9036 26.7318 93.6042 27.1484 93.3438C27.5651 93.0573 28.0078 92.849 28.4766 92.7188C28.9453 92.5625 29.388 92.4974 29.8047 92.5234C30.2214 92.5234 30.4948 92.6406 30.625 92.875ZM49.2578 92.875C49.7526 93.2917 50.1172 94.125 50.3516 95.375C50.5859 96.599 50.6771 97.9661 50.625 99.4766C50.599 99.9453 50.5339 100.596 50.4297 101.43C50.3255 102.237 50.1953 103.135 50.0391 104.125C49.9089 105.089 49.7526 106.078 49.5703 107.094C49.4141 108.109 49.2578 109.047 49.1016 109.906C48.9453 110.766 48.8021 111.495 48.6719 112.094C48.5677 112.667 48.5026 113.005 48.4766 113.109C48.4245 113.292 48.2812 113.474 48.0469 113.656C47.8125 113.839 47.5651 113.995 47.3047 114.125C47.0703 114.229 46.8359 114.307 46.6016 114.359C46.3672 114.385 46.224 114.333 46.1719 114.203C46.1458 114.125 46.1458 113.721 46.1719 112.992C46.1979 112.263 46.237 111.365 46.2891 110.297C46.3411 109.203 46.3932 108.044 46.4453 106.82C46.5234 105.57 46.5885 104.398 46.6406 103.305C46.6927 102.211 46.7448 101.286 46.7969 100.531C46.849 99.75 46.875 99.2812 46.875 99.125C46.901 98.3177 46.8359 97.6146 46.6797 97.0156C46.5234 96.3906 46.263 96.0781 45.8984 96.0781C45.7682 96.0781 45.612 96.1432 45.4297 96.2734C45.2474 96.3776 45.0651 96.5078 44.8828 96.6641C44.7266 96.8203 44.5703 96.9896 44.4141 97.1719C44.2839 97.3542 44.2188 97.5234 44.2188 97.6797C44.1927 98.1484 44.1536 98.8385 44.1016 99.75C44.0755 100.661 44.0365 101.664 43.9844 102.758C43.9583 103.852 43.9193 104.971 43.8672 106.117C43.8411 107.263 43.8021 108.318 43.75 109.281C43.724 110.245 43.6979 111.052 43.6719 111.703C43.6458 112.328 43.6198 112.68 43.5938 112.758C43.5417 112.862 43.3724 112.94 43.0859 112.992C42.8255 113.018 42.526 113.018 42.1875 112.992C41.849 112.966 41.5365 112.901 41.25 112.797C40.9896 112.693 40.8333 112.549 40.7812 112.367C40.7292 112.237 40.6901 111.846 40.6641 111.195C40.638 110.518 40.599 109.711 40.5469 108.773C40.5208 107.836 40.4948 106.833 40.4688 105.766C40.4427 104.672 40.4167 103.656 40.3906 102.719C40.3646 101.781 40.3385 100.974 40.3125 100.297C40.3125 99.6198 40.3125 99.2031 40.3125 99.0469C40.3125 98.4219 40.2604 97.9271 40.1562 97.5625C40.0521 97.1719 39.9219 96.8724 39.7656 96.6641C39.6354 96.4297 39.4792 96.2865 39.2969 96.2344C39.1146 96.1562 38.9323 96.1172 38.75 96.1172C38.6719 96.1172 38.5547 96.1823 38.3984 96.3125C38.2422 96.4167 38.0859 96.5859 37.9297 96.8203C37.7734 97.0286 37.6432 97.276 37.5391 97.5625C37.4349 97.8229 37.3958 98.1094 37.4219 98.4219C37.4219 98.5521 37.4349 99.0339 37.4609 99.8672C37.487 100.701 37.5 101.703 37.5 102.875C37.526 104.047 37.5521 105.31 37.5781 106.664C37.6042 108.018 37.6172 109.281 37.6172 110.453C37.6432 111.599 37.6562 112.576 37.6562 113.383C37.6562 114.164 37.6562 114.581 37.6562 114.633C37.6042 114.763 37.4609 114.841 37.2266 114.867C36.9922 114.867 36.7318 114.815 36.4453 114.711C36.1589 114.607 35.8854 114.464 35.625 114.281C35.3646 114.073 35.1823 113.826 35.0781 113.539C35.026 113.331 34.9479 112.875 34.8438 112.172C34.7396 111.469 34.6224 110.635 34.4922 109.672C34.362 108.682 34.2318 107.628 34.1016 106.508C33.9714 105.362 33.8411 104.268 33.7109 103.227C33.5807 102.159 33.4635 101.195 33.3594 100.336C33.2812 99.4766 33.2161 98.8255 33.1641 98.3828C33.0859 97.7578 32.9948 97.0807 32.8906 96.3516C32.8125 95.5964 32.7344 94.8802 32.6562 94.2031C32.6042 93.5 32.5651 92.901 32.5391 92.4062C32.513 91.8854 32.5391 91.5599 32.6172 91.4297C32.6693 91.3255 32.8516 91.2865 33.1641 91.3125C33.5026 91.3385 33.8542 91.4167 34.2188 91.5469C34.6094 91.651 34.974 91.8073 35.3125 92.0156C35.6771 92.1979 35.9115 92.3932 36.0156 92.6016C36.0938 92.7578 36.1719 92.9531 36.25 93.1875C36.3542 93.3958 36.4583 93.7344 36.5625 94.2031C37.0052 93.8646 37.4609 93.5521 37.9297 93.2656C38.3984 92.9531 38.8672 92.7188 39.3359 92.5625C39.8047 92.3802 40.2474 92.2891 40.6641 92.2891C41.1068 92.263 41.5234 92.3802 41.9141 92.6406C42.2526 92.901 42.5781 93.3568 42.8906 94.0078C44.1406 93.3047 45.3385 92.8229 46.4844 92.5625C47.6562 92.276 48.5807 92.3802 49.2578 92.875ZM56.7578 99.2031C56.8099 99.3333 56.8359 99.75 56.8359 100.453C56.862 101.13 56.862 101.964 56.8359 102.953C56.8359 103.917 56.8099 104.958 56.7578 106.078C56.7057 107.172 56.6406 108.214 56.5625 109.203C56.5104 110.167 56.4453 111 56.3672 111.703C56.2891 112.38 56.2109 112.784 56.1328 112.914C55.8984 113.279 55.5469 113.513 55.0781 113.617C54.6094 113.695 54.2708 113.708 54.0625 113.656C53.9583 113.656 53.8411 113.357 53.7109 112.758C53.6068 112.159 53.5026 111.404 53.3984 110.492C53.2943 109.581 53.2031 108.591 53.125 107.523C53.0469 106.456 52.9818 105.44 52.9297 104.477C52.8776 103.487 52.8516 102.628 52.8516 101.898C52.8516 101.169 52.8776 100.701 52.9297 100.492C53.0078 100.154 53.2292 99.8542 53.5938 99.5938C53.9844 99.3333 54.388 99.138 54.8047 99.0078C55.2474 98.8776 55.651 98.8255 56.0156 98.8516C56.4062 98.8516 56.6536 98.9688 56.7578 99.2031ZM56.9531 92.875C57.0573 93.0833 57.0964 93.3698 57.0703 93.7344C57.0703 94.099 57.0312 94.4766 56.9531 94.8672C56.875 95.2578 56.7708 95.6354 56.6406 96C56.5104 96.3646 56.3802 96.651 56.25 96.8594C55.9896 97.224 55.599 97.4583 55.0781 97.5625C54.5833 97.6406 54.2188 97.6536 53.9844 97.6016C53.8021 97.5755 53.6198 97.4583 53.4375 97.25C53.2552 97.0156 53.099 96.7422 52.9688 96.4297C52.8385 96.0911 52.7474 95.7266 52.6953 95.3359C52.6432 94.9453 52.6562 94.5807 52.7344 94.2422C52.8125 93.9036 53.0599 93.6042 53.4766 93.3438C53.8932 93.0573 54.3359 92.849 54.8047 92.7188C55.2734 92.5625 55.7161 92.4974 56.1328 92.5234C56.5495 92.5234 56.8229 92.6406 56.9531 92.875ZM68.2812 92.1328C68.2812 92.237 68.138 92.6536 67.8516 93.3828C67.5651 94.112 67.2005 95.0104 66.7578 96.0781C66.3151 97.1458 65.8203 98.3177 65.2734 99.5938C64.7266 100.844 64.2057 102.042 63.7109 103.188C63.2422 104.333 62.8255 105.336 62.4609 106.195C62.0964 107.055 61.862 107.628 61.7578 107.914C62.3568 107.836 62.9557 107.771 63.5547 107.719C64.1536 107.641 64.6875 107.589 65.1562 107.562C65.651 107.51 66.0547 107.484 66.3672 107.484C66.6797 107.458 66.849 107.458 66.875 107.484C66.9531 107.589 66.9531 107.81 66.875 108.148C66.7969 108.461 66.6797 108.812 66.5234 109.203C66.3672 109.594 66.1849 109.971 65.9766 110.336C65.7943 110.701 65.638 110.961 65.5078 111.117C65.4557 111.195 65.1693 111.26 64.6484 111.312C64.1536 111.365 63.5938 111.404 62.9688 111.43C62.3438 111.456 61.7448 111.469 61.1719 111.469C60.599 111.469 60.2344 111.456 60.0781 111.43C59.7917 111.378 59.5182 111.104 59.2578 110.609C59.0234 110.115 58.8802 109.646 58.8281 109.203C58.8021 108.995 58.8672 108.578 59.0234 107.953C59.2057 107.328 59.4401 106.599 59.7266 105.766C60.013 104.906 60.3385 103.995 60.7031 103.031C61.0938 102.042 61.4583 101.078 61.7969 100.141C62.1615 99.2031 62.487 98.3438 62.7734 97.5625C63.0599 96.7552 63.2812 96.1042 63.4375 95.6094C62.3698 95.6875 61.5495 95.7526 60.9766 95.8047C60.4036 95.8568 59.974 95.8958 59.6875 95.9219C59.4271 95.9479 59.2578 95.9609 59.1797 95.9609C59.1016 95.9349 59.0495 95.8958 59.0234 95.8438C58.9193 95.6875 58.8151 95.401 58.7109 94.9844C58.6328 94.5677 58.5677 94.125 58.5156 93.6562C58.4896 93.1875 58.4766 92.7578 58.4766 92.3672C58.5026 91.9505 58.5677 91.6771 58.6719 91.5469C58.724 91.4688 58.9974 91.4036 59.4922 91.3516C59.987 91.2995 60.5859 91.2604 61.2891 91.2344C62.0182 91.2083 62.7865 91.2083 63.5938 91.2344C64.401 91.2344 65.1432 91.2734 65.8203 91.3516C66.5234 91.4036 67.0964 91.4948 67.5391 91.625C68.0078 91.7552 68.2552 91.9245 68.2812 92.1328ZM78.7891 95.4531C78.9453 95.6354 79.0885 95.8307 79.2188 96.0391C79.349 96.2214 79.4661 96.4818 79.5703 96.8203C79.6745 97.1328 79.7526 97.5495 79.8047 98.0703C79.8828 98.5911 79.9219 99.2682 79.9219 100.102C79.9219 101.43 79.8828 102.771 79.8047 104.125C79.7526 105.453 79.7005 106.625 79.6484 107.641C79.6224 108.552 79.5964 109.398 79.5703 110.18C79.5443 110.961 79.5182 111.651 79.4922 112.25C79.4661 112.823 79.4271 113.279 79.375 113.617C79.349 113.956 79.3229 114.138 79.2969 114.164C79.1927 114.242 79.0234 114.216 78.7891 114.086C78.5807 113.93 78.3464 113.734 78.0859 113.5C77.8516 113.266 77.6302 113.018 77.4219 112.758C77.2135 112.497 77.0833 112.289 77.0312 112.133C77.0312 112.003 76.9922 111.625 76.9141 111C76.2891 111.365 75.599 111.625 74.8438 111.781C74.0885 111.911 73.3333 111.964 72.5781 111.938C71.849 111.885 71.1719 111.742 70.5469 111.508C69.9219 111.273 69.4531 110.961 69.1406 110.57C69.0104 110.414 68.8932 110.18 68.7891 109.867C68.7109 109.555 68.6328 109.203 68.5547 108.812C68.5026 108.396 68.4505 107.966 68.3984 107.523C68.3464 107.055 68.3073 106.625 68.2812 106.234C68.2292 105.219 68.3594 104.346 68.6719 103.617C68.9844 102.862 69.5573 102.302 70.3906 101.938C70.7552 101.781 71.237 101.703 71.8359 101.703C72.4609 101.677 73.0729 101.703 73.6719 101.781C74.2969 101.833 74.8568 101.911 75.3516 102.016C75.8464 102.094 76.1589 102.159 76.2891 102.211C76.1849 100.883 76.1068 99.737 76.0547 98.7734C76.0026 97.7839 75.8984 97.1458 75.7422 96.8594C75.612 96.6771 75.4557 96.4948 75.2734 96.3125C75.1172 96.1823 74.9089 96.0391 74.6484 95.8828C74.388 95.7266 74.0755 95.6094 73.7109 95.5312C73.4245 95.4792 73.1641 95.5964 72.9297 95.8828C72.7214 96.1432 72.526 96.612 72.3438 97.2891C72.1875 97.9401 72.0964 98.9427 72.0703 100.297C71.1589 100.323 70.4557 100.323 69.9609 100.297C69.4922 100.245 69.1406 100.193 68.9062 100.141C68.6198 100.089 68.4505 100.023 68.3984 99.9453C68.3464 99.8411 68.3724 99.4635 68.4766 98.8125C68.5807 98.1354 68.724 97.4062 68.9062 96.625C69.1146 95.8438 69.349 95.1016 69.6094 94.3984C69.8958 93.6953 70.1953 93.2526 70.5078 93.0703C71.1328 92.7057 71.875 92.5755 72.7344 92.6797C73.6198 92.7839 74.4792 93.0052 75.3125 93.3438C76.1458 93.6823 76.888 94.0599 77.5391 94.4766C78.1901 94.8932 78.6068 95.2188 78.7891 95.4531ZM76.3672 106.859C76.3672 106.729 76.3802 106.56 76.4062 106.352C76.4323 106.117 76.4453 105.883 76.4453 105.648C76.4453 105.414 76.4323 105.193 76.4062 104.984C76.4062 104.776 76.3802 104.62 76.3281 104.516C76.25 104.359 76.0156 104.229 75.625 104.125C75.2604 104.021 74.8438 103.956 74.375 103.93C73.9062 103.878 73.4635 103.865 73.0469 103.891C72.6302 103.891 72.3438 103.943 72.1875 104.047C71.9792 104.177 71.8229 104.359 71.7188 104.594C71.6406 104.828 71.5885 105.193 71.5625 105.688C71.5625 105.922 71.5755 106.169 71.6016 106.43C71.6276 106.69 71.6536 106.951 71.6797 107.211C71.7318 107.445 71.7839 107.654 71.8359 107.836C71.9141 108.018 71.9922 108.135 72.0703 108.188C72.2526 108.318 72.5651 108.435 73.0078 108.539C73.4766 108.617 73.9453 108.643 74.4141 108.617C74.8828 108.565 75.3125 108.409 75.7031 108.148C76.0938 107.888 76.3151 107.458 76.3672 106.859ZM90.625 118.031C90.8073 118.396 90.9115 118.891 90.9375 119.516C90.9896 120.141 90.9635 120.766 90.8594 121.391C90.7812 122.042 90.638 122.628 90.4297 123.148C90.2474 123.669 90.013 124.008 89.7266 124.164C89.4401 124.294 88.9453 124.307 88.2422 124.203C87.5391 124.099 86.8099 123.93 86.0547 123.695C85.3255 123.487 84.6484 123.253 84.0234 122.992C83.3984 122.732 83.0078 122.523 82.8516 122.367C82.6953 122.185 82.5391 121.924 82.3828 121.586C82.2526 121.247 82.1354 120.909 82.0312 120.57C81.9271 120.232 81.862 119.919 81.8359 119.633C81.8359 119.372 81.888 119.216 81.9922 119.164C82.0964 119.112 82.4219 119.203 82.9688 119.438C83.5417 119.698 84.1536 119.984 84.8047 120.297C85.4818 120.609 86.1198 120.883 86.7188 121.117C87.3177 121.352 87.6953 121.43 87.8516 121.352C87.9297 121.326 87.9948 121.234 88.0469 121.078C88.099 120.922 88.125 120.753 88.125 120.57C88.151 120.414 88.151 120.245 88.125 120.062C88.099 119.88 88.0599 119.737 88.0078 119.633C87.9557 119.529 87.8125 119.411 87.5781 119.281C87.3698 119.177 87.0964 119.06 86.7578 118.93C86.4193 118.799 86.0547 118.669 85.6641 118.539C85.2734 118.409 84.8958 118.279 84.5312 118.148C84.4531 118.122 84.362 118.031 84.2578 117.875C84.1536 117.745 84.0625 117.589 83.9844 117.406C83.9062 117.224 83.8411 117.029 83.7891 116.82C83.763 116.612 83.776 116.43 83.8281 116.273C83.8542 116.169 83.9453 116 84.1016 115.766C84.2578 115.531 84.4271 115.284 84.6094 115.023C84.8177 114.737 85.026 114.464 85.2344 114.203C85.4427 113.917 85.638 113.669 85.8203 113.461C85.2995 113.174 84.8568 112.901 84.4922 112.641C84.1276 112.38 83.8932 112.172 83.7891 112.016C83.6849 111.833 83.5286 111.391 83.3203 110.688C83.112 109.958 82.8906 109.073 82.6562 108.031C82.4479 106.99 82.2656 105.844 82.1094 104.594C81.9531 103.344 81.875 102.094 81.875 100.844C81.875 99.5938 81.901 98.3568 81.9531 97.1328C82.0312 95.9089 82.1484 94.8151 82.3047 93.8516C82.4609 92.888 82.6562 92.1068 82.8906 91.5078C83.151 90.9089 83.4635 90.5964 83.8281 90.5703C84.8438 90.4661 85.8594 90.5573 86.875 90.8438C87.9167 91.1042 88.8411 91.4688 89.6484 91.9375C90.4818 92.3802 91.1589 92.862 91.6797 93.3828C92.2005 93.8776 92.487 94.2943 92.5391 94.6328C92.5651 94.9974 92.5391 95.5052 92.4609 96.1562C92.3828 96.8073 92.2786 97.4714 92.1484 98.1484C92.0443 98.7995 91.9141 99.3984 91.7578 99.9453C91.6276 100.466 91.5104 100.766 91.4062 100.844C91.1719 101.078 90.8984 101.326 90.5859 101.586C90.2734 101.846 89.974 101.898 89.6875 101.742C89.5833 101.69 89.4922 101.495 89.4141 101.156C89.3359 100.792 89.2578 100.349 89.1797 99.8281C89.1276 99.3073 89.0755 98.7474 89.0234 98.1484C88.9714 97.5495 88.9193 97.0026 88.8672 96.5078C88.8411 95.987 88.8021 95.5573 88.75 95.2188C88.724 94.8542 88.6979 94.6589 88.6719 94.6328C88.5677 94.5286 88.3464 94.4245 88.0078 94.3203C87.6693 94.2161 87.4349 94.2552 87.3047 94.4375C87.2266 94.5417 87.0964 94.8802 86.9141 95.4531C86.7318 96.026 86.5365 96.7552 86.3281 97.6406C86.1458 98.526 85.9766 99.5417 85.8203 100.688C85.6901 101.833 85.625 103.018 85.625 104.242C85.625 105.128 85.6641 105.974 85.7422 106.781C85.8203 107.562 85.9115 108.253 86.0156 108.852C86.1458 109.451 86.2891 109.932 86.4453 110.297C86.6276 110.661 86.8099 110.844 86.9922 110.844C87.1484 110.87 87.3307 110.701 87.5391 110.336C87.7734 109.945 87.9948 109.516 88.2031 109.047C88.4375 108.578 88.6328 108.135 88.7891 107.719C88.9714 107.276 89.1016 106.99 89.1797 106.859C89.388 106.521 89.6615 106.221 90 105.961C90.3385 105.701 90.625 105.57 90.8594 105.57C90.9896 105.57 91.0807 105.661 91.1328 105.844C91.2109 106.026 91.263 106.247 91.2891 106.508C91.3411 106.742 91.3672 107.003 91.3672 107.289C91.3672 107.549 91.3672 107.758 91.3672 107.914C91.3672 108.201 91.3151 108.734 91.2109 109.516C91.1068 110.297 90.9505 111.091 90.7422 111.898C90.5599 112.706 90.3385 113.422 90.0781 114.047C89.8438 114.672 89.5833 114.971 89.2969 114.945C88.9844 114.945 88.5156 114.802 87.8906 114.516C87.8385 114.646 87.7604 114.828 87.6562 115.062C87.5521 115.271 87.3958 115.518 87.1875 115.805C87.9948 116.169 88.7109 116.534 89.3359 116.898C89.987 117.289 90.4167 117.667 90.625 118.031ZM104.453 95.4531C104.609 95.6354 104.753 95.8307 104.883 96.0391C105.013 96.2214 105.13 96.4818 105.234 96.8203C105.339 97.1328 105.417 97.5495 105.469 98.0703C105.547 98.5911 105.586 99.2682 105.586 100.102C105.586 101.43 105.547 102.771 105.469 104.125C105.417 105.453 105.365 106.625 105.312 107.641C105.286 108.552 105.26 109.398 105.234 110.18C105.208 110.961 105.182 111.651 105.156 112.25C105.13 112.823 105.091 113.279 105.039 113.617C105.013 113.956 104.987 114.138 104.961 114.164C104.857 114.242 104.688 114.216 104.453 114.086C104.245 113.93 104.01 113.734 103.75 113.5C103.516 113.266 103.294 113.018 103.086 112.758C102.878 112.497 102.747 112.289 102.695 112.133C102.695 112.003 102.656 111.625 102.578 111C101.953 111.365 101.263 111.625 100.508 111.781C99.7526 111.911 98.9974 111.964 98.2422 111.938C97.513 111.885 96.8359 111.742 96.2109 111.508C95.5859 111.273 95.1172 110.961 94.8047 110.57C94.6745 110.414 94.5573 110.18 94.4531 109.867C94.375 109.555 94.2969 109.203 94.2188 108.812C94.1667 108.396 94.1146 107.966 94.0625 107.523C94.0104 107.055 93.9714 106.625 93.9453 106.234C93.8932 105.219 94.0234 104.346 94.3359 103.617C94.6484 102.862 95.2214 102.302 96.0547 101.938C96.4193 101.781 96.901 101.703 97.5 101.703C98.125 101.677 98.737 101.703 99.3359 101.781C99.9609 101.833 100.521 101.911 101.016 102.016C101.51 102.094 101.823 102.159 101.953 102.211C101.849 100.883 101.771 99.737 101.719 98.7734C101.667 97.7839 101.562 97.1458 101.406 96.8594C101.276 96.6771 101.12 96.4948 100.938 96.3125C100.781 96.1823 100.573 96.0391 100.312 95.8828C100.052 95.7266 99.7396 95.6094 99.375 95.5312C99.0885 95.4792 98.8281 95.5964 98.5938 95.8828C98.3854 96.1432 98.1901 96.612 98.0078 97.2891C97.8516 97.9401 97.7604 98.9427 97.7344 100.297C96.8229 100.323 96.1198 100.323 95.625 100.297C95.1562 100.245 94.8047 100.193 94.5703 100.141C94.2839 100.089 94.1146 100.023 94.0625 99.9453C94.0104 99.8411 94.0365 99.4635 94.1406 98.8125C94.2448 98.1354 94.388 97.4062 94.5703 96.625C94.7786 95.8438 95.013 95.1016 95.2734 94.3984C95.5599 93.6953 95.8594 93.2526 96.1719 93.0703C96.7969 92.7057 97.5391 92.5755 98.3984 92.6797C99.2839 92.7839 100.143 93.0052 100.977 93.3438C101.81 93.6823 102.552 94.0599 103.203 94.4766C103.854 94.8932 104.271 95.2188 104.453 95.4531ZM102.031 106.859C102.031 106.729 102.044 106.56 102.07 106.352C102.096 106.117 102.109 105.883 102.109 105.648C102.109 105.414 102.096 105.193 102.07 104.984C102.07 104.776 102.044 104.62 101.992 104.516C101.914 104.359 101.68 104.229 101.289 104.125C100.924 104.021 100.508 103.956 100.039 103.93C99.5703 103.878 99.1276 103.865 98.7109 103.891C98.2943 103.891 98.0078 103.943 97.8516 104.047C97.6432 104.177 97.487 104.359 97.3828 104.594C97.3047 104.828 97.2526 105.193 97.2266 105.688C97.2266 105.922 97.2396 106.169 97.2656 106.43C97.2917 106.69 97.3177 106.951 97.3438 107.211C97.3958 107.445 97.4479 107.654 97.5 107.836C97.5781 108.018 97.6562 108.135 97.7344 108.188C97.9167 108.318 98.2292 108.435 98.6719 108.539C99.1406 108.617 99.6094 108.643 100.078 108.617C100.547 108.565 100.977 108.409 101.367 108.148C101.758 107.888 101.979 107.458 102.031 106.859ZM105.391 86.2734C105.521 86.1432 105.703 86.1432 105.938 86.2734C106.172 86.4036 106.38 86.5859 106.562 86.8203C106.771 87.0547 106.914 87.3151 106.992 87.6016C107.096 87.862 107.096 88.0573 106.992 88.1875C106.888 88.3177 106.667 88.5521 106.328 88.8906C106.016 89.2031 105.664 89.5417 105.273 89.9062C104.909 90.2448 104.544 90.5443 104.18 90.8047C103.815 91.0651 103.542 91.2083 103.359 91.2344C103.151 91.2604 102.826 91.1302 102.383 90.8438C101.94 90.5312 101.458 90.2057 100.938 89.8672C100.443 89.5026 99.9609 89.1771 99.4922 88.8906C99.0495 88.5781 98.724 88.4349 98.5156 88.4609C98.4115 88.4609 98.2422 88.5521 98.0078 88.7344C97.7995 88.9167 97.5651 89.125 97.3047 89.3594C97.0443 89.5677 96.7969 89.7891 96.5625 90.0234C96.3281 90.2318 96.1589 90.388 96.0547 90.4922C95.9245 90.6224 95.7422 90.6224 95.5078 90.4922C95.2995 90.362 95.0911 90.1927 94.8828 89.9844C94.6745 89.776 94.4922 89.5547 94.3359 89.3203C94.2057 89.0859 94.1667 88.9167 94.2188 88.8125C94.2708 88.7083 94.4661 88.4609 94.8047 88.0703C95.1432 87.6797 95.5208 87.276 95.9375 86.8594C96.3802 86.4427 96.8099 86.0651 97.2266 85.7266C97.6693 85.362 98.0208 85.1667 98.2812 85.1406C98.5938 85.1146 99.0104 85.2318 99.5312 85.4922C100.052 85.7526 100.56 86.0521 101.055 86.3906C101.576 86.7031 102.044 87.0026 102.461 87.2891C102.878 87.5495 103.151 87.6797 103.281 87.6797C103.333 87.6797 103.451 87.6276 103.633 87.5234C103.815 87.4193 104.01 87.3021 104.219 87.1719C104.453 87.0156 104.674 86.8594 104.883 86.7031C105.091 86.5469 105.26 86.4036 105.391 86.2734ZM116.484 94.6328C116.667 94.7891 116.836 95.0885 116.992 95.5312C117.174 95.974 117.331 96.5078 117.461 97.1328C117.591 97.7578 117.708 98.4349 117.812 99.1641C117.917 99.8932 118.008 100.609 118.086 101.312C118.164 102.016 118.216 102.68 118.242 103.305C118.294 103.904 118.333 104.398 118.359 104.789C118.385 105.258 118.398 105.753 118.398 106.273C118.424 106.768 118.424 107.25 118.398 107.719C118.398 108.161 118.372 108.565 118.32 108.93C118.294 109.294 118.242 109.568 118.164 109.75C118.008 110.141 117.734 110.414 117.344 110.57C116.979 110.701 116.562 110.792 116.094 110.844C115.859 110.87 115.456 110.883 114.883 110.883C114.336 110.857 113.737 110.831 113.086 110.805C112.461 110.753 111.862 110.701 111.289 110.648C110.716 110.596 110.286 110.544 110 110.492C109.427 110.362 109.01 110.193 108.75 109.984C108.516 109.776 108.281 109.477 108.047 109.086C107.969 108.93 107.904 108.539 107.852 107.914C107.799 107.263 107.76 106.495 107.734 105.609C107.734 104.698 107.747 103.721 107.773 102.68C107.799 101.638 107.839 100.648 107.891 99.7109C107.969 98.7734 108.047 97.9531 108.125 97.25C108.229 96.5469 108.359 96.0781 108.516 95.8438C108.776 95.4792 109.219 95.1406 109.844 94.8281C110.495 94.5156 111.081 94.2682 111.602 94.0859C111.862 94.0078 112.201 93.9557 112.617 93.9297C113.06 93.8776 113.516 93.8776 113.984 93.9297C114.479 93.9557 114.948 94.0339 115.391 94.1641C115.833 94.2682 116.198 94.4245 116.484 94.6328ZM114.297 106.742C114.349 106.638 114.401 106.326 114.453 105.805C114.531 105.258 114.583 104.607 114.609 103.852C114.661 103.096 114.688 102.289 114.688 101.43C114.714 100.57 114.727 99.776 114.727 99.0469C114.727 98.3177 114.701 97.7057 114.648 97.2109C114.596 96.6901 114.531 96.3906 114.453 96.3125C114.323 96.2083 114.128 96.1693 113.867 96.1953C113.633 96.1953 113.385 96.2344 113.125 96.3125C112.865 96.3646 112.63 96.4427 112.422 96.5469C112.214 96.625 112.07 96.7031 111.992 96.7812C111.654 97.0677 111.471 97.5365 111.445 98.1875C111.445 98.3698 111.419 98.8906 111.367 99.75C111.341 100.583 111.328 101.495 111.328 102.484C111.328 103.448 111.341 104.346 111.367 105.18C111.419 106.013 111.51 106.521 111.641 106.703C111.771 106.885 111.953 107.029 112.188 107.133C112.448 107.211 112.708 107.25 112.969 107.25C113.255 107.25 113.516 107.211 113.75 107.133C114.01 107.029 114.193 106.898 114.297 106.742Z" fill="white"/>
</svg>
